<svg width="630" height="673" viewBox="0 0 630 673" fill="none" xmlns="http://www.w3.org/2000/svg">
<g opacity="0.5">
<rect x="498.307" y="27.3035" width="20" height="100" rx="10" transform="rotate(43.0841 498.307 27.3035)" fill="white"/>
<rect x="556.764" y="13.6519" width="20" height="100" rx="10" transform="rotate(43.0841 556.764 13.6519)" fill="white"/>
<rect x="615.221" width="20" height="100" rx="10" transform="rotate(43.0841 615.221 0)" fill="white"/>
</g>
<g opacity="0.5">
<rect x="102.307" y="510.303" width="20" height="100" rx="10" transform="rotate(43.0841 102.307 510.303)" fill="white"/>
<rect x="160.764" y="496.652" width="20" height="100" rx="10" transform="rotate(43.0841 160.764 496.652)" fill="white"/>
<rect x="219.221" y="483" width="20" height="100" rx="10" transform="rotate(43.0841 219.221 483)" fill="white"/>
</g>
<path fill-rule="evenodd" clip-rule="evenodd" d="M305.369 2.40453C348.353 9.26869 376.759 52.4646 418.806 63.7258C472.862 78.203 540.395 42.0271 584.049 77.0406C624.788 109.715 616.422 175.052 622.304 226.943C627.764 275.117 638.717 326.98 617.309 370.48C596.143 413.488 532.617 419.632 507.409 460.403C477.417 508.915 501.081 582.127 461.228 622.928C423.008 662.057 357.477 683.879 305.369 667.247C249.561 649.434 241.678 566.142 191.04 536.688C145.97 510.472 77.7378 546.458 38.5579 512.056C0.970701 479.052 1.05559 418.982 0.0308628 368.972C-0.909052 323.102 19.8342 281.071 32.9238 237.097C45.2943 195.54 51.5154 152.072 75.3734 115.866C100.216 78.1664 132.541 44.4528 173.03 24.4783C213.647 4.44133 260.645 -4.73724 305.369 2.40453Z" fill="#292A33"/>
</svg>
